<svg viewBox="0 0 98 73" fill="none" xmlns="http://www.w3.org/2000/svg">
  <path
    fill-rule="evenodd"
    clip-rule="evenodd"
    d="M47.484 4.286a4.264 4.264 0 0 1-1.327 3.098l2.122 3.239a4.24 4.24 0 0 1 1.45-.254 4.24 4.24 0 0 1 1.524.282l2.518-3.9a3.07 3.07 0 0 1-1.236-2.665 3.065 3.065 0 0 1 1.574-2.481 3.082 3.082 0 0 1 4.065.994c.283.429.453.921.496 1.432l6.062 1.19a2.582 2.582 0 0 1 4.525-.757c.38.508.557 1.14.5 1.77l5.044.99a1.749 1.749 0 0 1 2.74 1.027 1.739 1.739 0 0 1-1.193 2.042 1.75 1.75 0 0 1-.858.042l-1.351 2.12c.357.38.612.844.741 1.348l6.077.042a2.57 2.57 0 0 1 1.516-1.661 2.585 2.585 0 0 1 3.091.947 2.57 2.57 0 0 1-.268 3.215l3.552 5.009a3.693 3.693 0 0 1 4.38 1.785 3.67 3.67 0 0 1-.99 4.617 3.691 3.691 0 0 1-3.239.65l-2.283 4.628a3.289 3.289 0 0 1 1.243 2.068l4.695.032a2.57 2.57 0 0 1 2.286-2.053 2.582 2.582 0 0 1 2.63 1.593 2.566 2.566 0 0 1-.772 2.97 2.582 2.582 0 0 1-3.074.119l-8.318 6.689a2.569 2.569 0 0 1-1.402 3.555 2.585 2.585 0 0 1-2.92-.803 2.568 2.568 0 0 1-.48-.955l-5.406-.037a3.345 3.345 0 0 1-1.275 2.058 3.359 3.359 0 0 1-4.503-.417 3.342 3.342 0 0 1-.132-4.354 3.356 3.356 0 0 1 1.894-1.172l.064-3.612a3.77 3.77 0 0 1-2.463-2.988 3.754 3.754 0 0 1 1.48-3.575l-2.073-3.865a3.686 3.686 0 0 1-1.334.248c-.395 0-.787-.062-1.162-.186l-2.488 4.105a3.817 3.817 0 0 1 1.282 3.813 3.815 3.815 0 0 1-2.85 2.842l-.05 2.845a3.744 3.744 0 0 1 2.529 1.983 3.728 3.728 0 0 1-2.413 5.272 3.749 3.749 0 0 1-3.158-.608l-7.568 7.68a2.567 2.567 0 0 1-.278 2.92 2.579 2.579 0 0 1-2.839.762l-3.986 4.313a2.569 2.569 0 0 1-1.776 3.995 2.584 2.584 0 0 1-2.629-1.337l-4.061.732a4.291 4.291 0 0 1-4.25 4.918 4.29 4.29 0 0 1-4.295-4.286 4.277 4.277 0 0 1 2.159-3.719l-1.227-3.953a4.308 4.308 0 0 1-1.32.206 4.291 4.291 0 0 1-4.285-4.595l-2.77-.147a3.677 3.677 0 0 1-2.401 2.165 3.694 3.694 0 0 1-4.277-1.813 3.671 3.671 0 0 1 .899-4.548l-2.285-3.877a2.583 2.583 0 0 1-2.977-.934 2.568 2.568 0 0 1 .107-3.112l-4.695-6.389a2.581 2.581 0 0 1-3.238-.901 2.568 2.568 0 0 1 1.472-3.909 2.583 2.583 0 0 1 1.208-.033.614.614 0 0 1 .013-.063l1.187-4.696a3.682 3.682 0 0 1-1.737-3.069 3.671 3.671 0 0 1 1.649-3.117 3.692 3.692 0 0 1 4.955.817c.378.487.626 1.061.723 1.67l6.42-.164a3.315 3.315 0 0 1 1.047-1.753l-3.36-5.32a2.582 2.582 0 0 1-3.132-1.602 2.565 2.565 0 0 1 .384-2.44 2.576 2.576 0 0 1 2.267-.992 2.58 2.58 0 0 1 1.205.423.535.535 0 0 1 .045-.046l3.802-3.59a2.153 2.153 0 0 1 1.11-2.574 2.166 2.166 0 0 1 2.721.692 2.154 2.154 0 0 1 .28 1.94c.064.038.122.088.172.15l2.212 2.743a3.11 3.11 0 0 1 3.94 1.22 3.09 3.09 0 0 1-.755 4.048l1.986 4.356a3.693 3.693 0 0 1 4.464 1.82 3.67 3.67 0 0 1-1.163 4.671 3.692 3.692 0 0 1-3.342.466l-2.691 4.404a3.66 3.66 0 0 1 1.002 2.521c0 .465-.088.925-.26 1.356l5.836 5.94a.656.656 0 0 1 .092.118 3.673 3.673 0 0 1 1.926-.737l.088-2.983a3.772 3.772 0 0 1-2.385-1.371 3.756 3.756 0 0 1 .374-5.1 3.775 3.775 0 0 1 2.56-1.01c.874 0 1.72.302 2.395.856a3.76 3.76 0 0 1 1.304 2.18l4.83.158a3.578 3.578 0 0 1 1.697-2.481 3.595 3.595 0 0 1 5.179 1.745 3.574 3.574 0 0 1-.16 3 .667.667 0 0 1 .097.082l5.792 6.073a3.736 3.736 0 0 1 2.255-1.183l.047-2.716a3.831 3.831 0 0 1-2.677-1.605 3.812 3.812 0 0 1 1.309-5.537 3.832 3.832 0 0 1 3.113-.242l2.478-4.089a3.671 3.671 0 0 1 .111-5.788l-2.166-4.034a3.52 3.52 0 0 1-2.151.106l-2.79 4.198a3.676 3.676 0 0 1 .461 4.807 3.683 3.683 0 0 1-3.016 1.538 3.694 3.694 0 0 1-3.002-1.567 3.673 3.673 0 0 1-.634-1.62l-3.788-.125a4.292 4.292 0 0 1-4.282 3.948 4.291 4.291 0 0 1-4.296-4.286 4.273 4.273 0 0 1 1.856-3.527l-1.987-3.034a3.997 3.997 0 0 1-5.033-2.25 3.974 3.974 0 0 1 .905-4.35l-2.933-4.212a2.583 2.583 0 0 1-2.65-.993 2.567 2.567 0 0 1 .946-3.823 2.582 2.582 0 0 1 2.809.35c.383.326.662.757.802 1.238h5.202A4.29 4.29 0 0 1 43.188 0a4.291 4.291 0 0 1 4.296 4.286ZM32.969 6.889c.37-.342.631-.786.751-1.276h5.382a4.297 4.297 0 0 0 4.086 2.959c.65 0 1.292-.146 1.877-.43l2.048 3.128a4.226 4.226 0 0 0-1.625 3.33 4.235 4.235 0 0 0 4.24 4.23 4.236 4.236 0 0 0 4.241-4.23 4.214 4.214 0 0 0-1.564-3.282L55 7.296a3.084 3.084 0 0 0 3.49-1.947l6.182 1.212c.101.453.324.87.644 1.207l-2.416 3.74a3.527 3.527 0 0 0-4.638 1.196 3.506 3.506 0 0 0 .852 4.703l-2.697 4.058a3.694 3.694 0 0 0-4.328 1.128c-.33.42-.564.909-.686 1.43l-3.953-.13a4.296 4.296 0 0 0-5.41-3.114l-2.033-3.104a3.98 3.98 0 0 0 .887-5.215 4 4 0 0 0-5.087-1.492l-2.84-4.079Zm30.638 10.3 2.222 4.137a3.695 3.695 0 0 1 4.249 1.743 3.67 3.67 0 0 1-.754 4.521l2.13 3.972a3.776 3.776 0 0 1 2.076-.011l3.398-4.87a2.57 2.57 0 0 1 .876-4.218 2.583 2.583 0 0 1 1.674-.071l2.467-5.685.01-.025a2.577 2.577 0 0 1-1.032-1.51l-5.996-.041a3.095 3.095 0 0 1-2.56 2.498 3.11 3.11 0 0 1-3.215-1.569 3.09 3.09 0 0 1 .404-3.549 3.105 3.105 0 0 1 3.486-.809l1.343-2.106c-.23-.34-.33-.75-.285-1.157l-4.814-.944a2.572 2.572 0 0 1-2.097 1.077c-.257 0-.505-.038-.74-.108l-2.512 3.89c.527.63.814 1.426.813 2.246a3.497 3.497 0 0 1-1.143 2.59Zm19.823-.046c.253 0 .497-.036.728-.104l3.509 4.949a3.67 3.67 0 0 0-1.347 2.361l-5.054-.034a2.563 2.563 0 0 0-.644-1.22l2.544-5.86a.702.702 0 0 0 .034-.101c.076.006.152.01.23.01Zm-8.252 27.743a3.347 3.347 0 0 0-2.665-2.58l.059-3.374a3.775 3.775 0 0 0 2.344-.864 3.76 3.76 0 0 0 1.287-2.137l5.22.035c.076.772.424 1.493.981 2.034a3.302 3.302 0 0 0 5.504-1.57l4.83.033c.033.1.073.198.119.293l-8.332 6.7a2.584 2.584 0 0 0-3.916 1.467l-5.431-.037Zm1.059-10.282a3.754 3.754 0 0 0-1.497-2.464l3.346-4.795a2.584 2.584 0 0 0 3.116-1.703l5.174.035a3.68 3.68 0 0 0 1.425 2.155l-2.28 4.622a3.307 3.307 0 0 0-2.414.31 3.294 3.294 0 0 0-1.544 1.876l-5.326-.036ZM45.425 35.99l-4.835-.16a3.775 3.775 0 0 1-2.937 3.075l-.095 3.157a3.693 3.693 0 0 1 2.6 2.848l5.53-.124a3.733 3.733 0 0 1 1.475-2.222 3.749 3.749 0 0 1 4.962.544c.615.683.956 1.57.957 2.488a3.727 3.727 0 0 1-2 3.305 3.75 3.75 0 0 1-3.862-.23l-6.06 6.472a3.673 3.673 0 0 1-.15 4.957 3.69 3.69 0 0 1-6.29-2.004 3.671 3.671 0 0 1 .577-2.597 3.694 3.694 0 0 1 4.825-1.192l6.153-6.57a3.704 3.704 0 0 1-.64-1.622l-5.469.123a3.674 3.674 0 0 1-2.148 2.726 3.694 3.694 0 0 1-3.466-.268l-4.636 5.283c.557.74.857 1.642.856 2.567a4.272 4.272 0 0 1-1.78 3.474c.015.029.027.06.036.091l1.24 3.994a4.305 4.305 0 0 1 2.762.333 4.291 4.291 0 0 1 1.978 1.953l.038-.008 4.124-.744a2.567 2.567 0 0 1 1.242-2.114 2.582 2.582 0 0 1 2.454-.116l3.893-4.211a2.568 2.568 0 0 1 1.547-4.194c.601-.1 1.218.016 1.742.327l7.584-7.695a3.706 3.706 0 0 1-.607-2.04c0-.477.089-.933.252-1.352l-5.991-6.28a3.592 3.592 0 0 1-3.495.683 3.59 3.59 0 0 1-2.366-2.657ZM19.48 9.89l-3.666 3.46a.674.674 0 0 1-.087.07 2.56 2.56 0 0 1-.456 2.943l3.376 5.341a3.333 3.333 0 0 1 3.947 1.538 3.311 3.311 0 0 1-.77 4.157l2.278 4.276a3.705 3.705 0 0 1 2.458.27l2.612-4.276a3.669 3.669 0 0 1 .03-5.648l-2.021-4.433a3.11 3.11 0 0 1-3.364-1.416 3.091 3.091 0 0 1 .313-3.63L22.014 9.92c-.365.258-.8.396-1.247.395-.464 0-.915-.148-1.287-.424Zm.206 18.286c.328 0 .655-.048.969-.143l2.226 4.178a3.68 3.68 0 0 0-1.58 2.555 3.67 3.67 0 0 0 2.078 3.81 3.691 3.691 0 0 0 4.269-.813l5.615 5.716c.05.051.108.094.172.127a3.654 3.654 0 0 0-.585 1.99c0 .823.27 1.582.728 2.195l-4.616 5.26a4.285 4.285 0 0 0-3.292-.716l-.849-3.452a.682.682 0 0 0-.026-.084 3.902 3.902 0 0 0 1.679-3.282 3.891 3.891 0 0 0-1.81-3.212 3.914 3.914 0 0 0-5.183.899 3.895 3.895 0 0 0-.767 1.739l-5.721.062a2.576 2.576 0 0 0-1.1-1.563l.002-.018.001-.008.753-5.147a3.137 3.137 0 0 0 3.178-1.631 3.118 3.118 0 0 0-.424-3.541.508.508 0 0 0 .027-.041l3.107-5.084c.358.132.745.204 1.149.204Zm-2.28-.902a3.31 3.31 0 0 1-.994-1.828l-6.42.163a3.66 3.66 0 0 1-.718 1.53c.04.043.075.092.103.146l2.58 4.962a3.13 3.13 0 0 1 1.104-.2c.436 0 .867.09 1.266.265l3.08-5.038Zm-9.144.748a3.712 3.712 0 0 1-2.58.447L4.537 33a.659.659 0 0 1-.166.3 2.566 2.566 0 0 1 .44 3.425l4.754 6.468a2.577 2.577 0 0 1 1.045-.165l.75-5.126a.669.669 0 0 1 .02-.094 3.126 3.126 0 0 1-1.45-2.636 3.111 3.111 0 0 1 .907-2.199.694.694 0 0 1-.01-.019l-2.564-4.932Zm14.236 26.902-2.813-.149v-.054a3.66 3.66 0 0 0-.985-2.503l1.82-3.237.006-.01a.702.702 0 0 0 .019-.038 3.92 3.92 0 0 0 3.026.433l.84 3.42a4.308 4.308 0 0 0-1.913 2.138Zm-10.046-7.667c.226-.267.4-.58.502-.924l5.764-.063c.119.676.414 1.308.856 1.832a.664.664 0 0 0-.214.23l-1.736 3.087A3.68 3.68 0 0 0 16 51.045c-.42 0-.823.07-1.199.198l-2.349-3.985Z"
    fill="#2bc1c5"
  />
</svg>
